<?xml version="1.0" encoding="UTF-8"?>
<svg xmlns="http://www.w3.org/2000/svg" viewBox="0 0 1200 630" width="1200" height="630" role="img" aria-label="Yassir Zahidi — cybersecurity portfolio — blue + red + purple">
  <defs>
    <linearGradient id="bg" x1="0" y1="0" x2="1" y2="1">
      <stop offset="0"  stop-color="#050810"/>
      <stop offset=".55" stop-color="#080d18"/>
      <stop offset="1"  stop-color="#0a1424"/>
    </linearGradient>
    <radialGradient id="glow" cx=".75" cy=".25" r=".7">
      <stop offset="0"   stop-color="#79e2ff" stop-opacity=".25"/>
      <stop offset=".5"  stop-color="#5cf2c1" stop-opacity=".07"/>
      <stop offset="1"   stop-color="#000000" stop-opacity="0"/>
    </radialGradient>
    <linearGradient id="accent" x1="0" y1="0" x2="1" y2="1">
      <stop offset="0" stop-color="#5cf2c1"/>
      <stop offset="1" stop-color="#79e2ff"/>
    </linearGradient>
    <pattern id="grid" width="40" height="40" patternUnits="userSpaceOnUse">
      <path d="M 40 0 L 0 0 0 40" fill="none" stroke="#142036" stroke-width="1"/>
    </pattern>
    <filter id="soft" x="-20%" y="-20%" width="140%" height="140%">
      <feGaussianBlur stdDeviation="14"/>
    </filter>
  </defs>

  <!-- background -->
  <rect width="1200" height="630" fill="url(#bg)"/>
  <rect width="1200" height="630" fill="url(#grid)" opacity=".55"/>
  <rect width="1200" height="630" fill="url(#glow)"/>

  <!-- corner ticks (frame) -->
  <g stroke="#1f2f4a" stroke-width="1.5" fill="none">
    <path d="M40 40 L40 90 M40 40 L90 40"/>
    <path d="M1160 40 L1110 40 M1160 40 L1160 90"/>
    <path d="M40 590 L40 540 M40 590 L90 590"/>
    <path d="M1160 590 L1110 590 M1160 590 L1160 540"/>
  </g>

  <!-- prompt header -->
  <g transform="translate(70 95)" font-family="ui-monospace, 'JetBrains Mono', SFMono-Regular, Menlo, monospace">
    <text font-size="22" fill="#54688a" letter-spacing="3">~ /yassir-zahidi/portfolio</text>
    <text y="34" font-size="22" fill="#5cf2c1">$</text>
    <text x="32" y="34" font-size="22" fill="#e2e9f6">whoami</text>
  </g>

  <!-- name -->
  <g transform="translate(70 230)" font-family="Inter, system-ui, sans-serif">
    <text font-size="98" font-weight="700" fill="#e2e9f6" letter-spacing="-2">Yassir Zahidi</text>
    <text y="60" font-size="30" fill="#8ea0bd" font-weight="400">Cybersecurity engineer-in-training · blue + red + purple</text>
    <text y="96" font-size="22" fill="#54688a" font-weight="400" font-family="ui-monospace, monospace">SOC · detection engineering · pentest · purple-team</text>
  </g>

  <!-- 3 chips -->
  <g transform="translate(70 410)" font-family="ui-monospace, monospace" font-size="22">
    <g>
      <rect width="110" height="44" rx="8" fill="#0a1424" stroke="#5cf2c1"/>
      <text x="18" y="28" fill="#5cf2c1">blue</text>
    </g>
    <g transform="translate(126 0)">
      <rect width="110" height="44" rx="8" fill="#0a1424" stroke="#ff6b8b"/>
      <text x="22" y="28" fill="#ff6b8b">red</text>
    </g>
    <g transform="translate(252 0)">
      <rect width="130" height="44" rx="8" fill="#0a1424" stroke="#a78bfa"/>
      <text x="18" y="28" fill="#a78bfa">purple</text>
    </g>
    <g transform="translate(398 0)">
      <rect width="170" height="44" rx="8" fill="#0a1424" stroke="#1f2f4a"/>
      <text x="20" y="28" fill="#79e2ff">wazuh</text>
    </g>
    <g transform="translate(584 0)">
      <rect width="170" height="44" rx="8" fill="#0a1424" stroke="#1f2f4a"/>
      <text x="20" y="28" fill="#79e2ff">suricata</text>
    </g>
  </g>

  <!-- footer prompt -->
  <g transform="translate(70 520)" font-family="ui-monospace, monospace">
    <text font-size="22" fill="#5cf2c1">$</text>
    <text x="32" font-size="22" fill="#e2e9f6">cat /etc/now</text>
    <text y="40" font-size="22" fill="#8ea0bd">→ building SIEMs, then attacking them on purpose · open — Morocco · EU · remote</text>
  </g>

  <!-- right brand mark "yz" cursor -->
  <g transform="translate(950 320)">
    <!-- soft glow -->
    <circle r="120" fill="url(#accent)" opacity=".18" filter="url(#soft)"/>
    <!-- outer ring -->
    <circle r="110" fill="none" stroke="url(#accent)" stroke-width="2" opacity=".7"/>
    <!-- inner card -->
    <rect x="-90" y="-90" width="180" height="180" rx="20" fill="#0a1424" stroke="#1f2f4a" stroke-width="2"/>
    <!-- yz mark -->
    <text x="0" y="14" text-anchor="middle"
          font-family="ui-monospace, 'JetBrains Mono', monospace"
          font-size="120" font-weight="700" fill="url(#accent)" letter-spacing="-4">yz</text>
    <!-- blinking caret -->
    <rect x="58" y="-50" width="14" height="100" fill="#5cf2c1">
      <animate attributeName="opacity" values="1;0;1" dur="1.1s" repeatCount="indefinite"/>
    </rect>
  </g>

  <!-- bottom URL -->
  <text x="600" y="600" text-anchor="middle"
        font-family="ui-monospace, monospace" font-size="20" fill="#54688a" letter-spacing="3">
    y-zahidi.github.io
  </text>
</svg>
